<mxfile host="app.diagrams.net" modified="2023-10-17T17:25:58.705Z" agent="Mozilla/5.0 (Windows NT 10.0; Win64; x64) AppleWebKit/537.36 (KHTML, like Gecko) Chrome/118.0.0.0 Safari/537.36" etag="LO7HgPghkcJNbY7dbCbp" version="22.0.4" type="github">
  <diagram id="C5RBs43oDa-KdzZeNtuy" name="Page-1">
    <mxGraphModel dx="1434" dy="758" grid="1" gridSize="10" guides="1" tooltips="1" connect="1" arrows="1" fold="1" page="1" pageScale="1" pageWidth="827" pageHeight="1169" math="0" shadow="0">
      <root>
        <mxCell id="WIyWlLk6GJQsqaUBKTNV-0" />
        <mxCell id="WIyWlLk6GJQsqaUBKTNV-1" parent="WIyWlLk6GJQsqaUBKTNV-0" />
        <mxCell id="_a08THzZfKDhMIew0P52-6" value="" style="edgeStyle=orthogonalEdgeStyle;rounded=0;orthogonalLoop=1;jettySize=auto;html=1;" edge="1" parent="WIyWlLk6GJQsqaUBKTNV-1" source="_a08THzZfKDhMIew0P52-1" target="_a08THzZfKDhMIew0P52-2">
          <mxGeometry relative="1" as="geometry" />
        </mxCell>
        <mxCell id="_a08THzZfKDhMIew0P52-1" value="start" style="ellipse;whiteSpace=wrap;html=1;" vertex="1" parent="WIyWlLk6GJQsqaUBKTNV-1">
          <mxGeometry x="280" y="80" width="120" height="80" as="geometry" />
        </mxCell>
        <mxCell id="_a08THzZfKDhMIew0P52-7" value="" style="edgeStyle=orthogonalEdgeStyle;rounded=0;orthogonalLoop=1;jettySize=auto;html=1;" edge="1" parent="WIyWlLk6GJQsqaUBKTNV-1" source="_a08THzZfKDhMIew0P52-2" target="_a08THzZfKDhMIew0P52-3">
          <mxGeometry relative="1" as="geometry" />
        </mxCell>
        <mxCell id="_a08THzZfKDhMIew0P52-2" value="get website name" style="rounded=1;whiteSpace=wrap;html=1;" vertex="1" parent="WIyWlLk6GJQsqaUBKTNV-1">
          <mxGeometry x="280" y="200" width="120" height="60" as="geometry" />
        </mxCell>
        <mxCell id="_a08THzZfKDhMIew0P52-8" value="" style="edgeStyle=orthogonalEdgeStyle;rounded=0;orthogonalLoop=1;jettySize=auto;html=1;" edge="1" parent="WIyWlLk6GJQsqaUBKTNV-1" source="_a08THzZfKDhMIew0P52-3" target="_a08THzZfKDhMIew0P52-4">
          <mxGeometry relative="1" as="geometry" />
        </mxCell>
        <mxCell id="_a08THzZfKDhMIew0P52-3" value="get website purpose" style="rounded=1;whiteSpace=wrap;html=1;" vertex="1" parent="WIyWlLk6GJQsqaUBKTNV-1">
          <mxGeometry x="280" y="300" width="120" height="60" as="geometry" />
        </mxCell>
        <mxCell id="_a08THzZfKDhMIew0P52-9" value="" style="edgeStyle=orthogonalEdgeStyle;rounded=0;orthogonalLoop=1;jettySize=auto;html=1;" edge="1" parent="WIyWlLk6GJQsqaUBKTNV-1" source="_a08THzZfKDhMIew0P52-4" target="_a08THzZfKDhMIew0P52-5">
          <mxGeometry relative="1" as="geometry" />
        </mxCell>
        <mxCell id="_a08THzZfKDhMIew0P52-4" value="combine name and purpose" style="rounded=1;whiteSpace=wrap;html=1;" vertex="1" parent="WIyWlLk6GJQsqaUBKTNV-1">
          <mxGeometry x="280" y="400" width="120" height="60" as="geometry" />
        </mxCell>
        <mxCell id="_a08THzZfKDhMIew0P52-15" value="" style="edgeStyle=orthogonalEdgeStyle;rounded=0;orthogonalLoop=1;jettySize=auto;html=1;" edge="1" parent="WIyWlLk6GJQsqaUBKTNV-1" source="_a08THzZfKDhMIew0P52-5" target="_a08THzZfKDhMIew0P52-14">
          <mxGeometry relative="1" as="geometry" />
        </mxCell>
        <mxCell id="_a08THzZfKDhMIew0P52-5" value="count number of characters in password" style="rounded=1;whiteSpace=wrap;html=1;" vertex="1" parent="WIyWlLk6GJQsqaUBKTNV-1">
          <mxGeometry x="280" y="500" width="120" height="60" as="geometry" />
        </mxCell>
        <mxCell id="_a08THzZfKDhMIew0P52-11" value="append ) to password" style="rounded=1;whiteSpace=wrap;html=1;" vertex="1" parent="WIyWlLk6GJQsqaUBKTNV-1">
          <mxGeometry x="110" y="600" width="120" height="60" as="geometry" />
        </mxCell>
        <mxCell id="_a08THzZfKDhMIew0P52-16" value="" style="edgeStyle=orthogonalEdgeStyle;rounded=0;orthogonalLoop=1;jettySize=auto;html=1;" edge="1" parent="WIyWlLk6GJQsqaUBKTNV-1" source="_a08THzZfKDhMIew0P52-14" target="_a08THzZfKDhMIew0P52-11">
          <mxGeometry relative="1" as="geometry" />
        </mxCell>
        <mxCell id="_a08THzZfKDhMIew0P52-21" value="" style="edgeStyle=orthogonalEdgeStyle;rounded=0;orthogonalLoop=1;jettySize=auto;html=1;" edge="1" parent="WIyWlLk6GJQsqaUBKTNV-1" source="_a08THzZfKDhMIew0P52-14" target="_a08THzZfKDhMIew0P52-20">
          <mxGeometry relative="1" as="geometry" />
        </mxCell>
        <mxCell id="_a08THzZfKDhMIew0P52-14" value="is number of characters&amp;nbsp;â‰¥ 10?" style="rhombus;whiteSpace=wrap;html=1;" vertex="1" parent="WIyWlLk6GJQsqaUBKTNV-1">
          <mxGeometry x="260" y="590" width="160" height="80" as="geometry" />
        </mxCell>
        <mxCell id="_a08THzZfKDhMIew0P52-17" value="yes" style="text;html=1;strokeColor=none;fillColor=none;align=center;verticalAlign=middle;whiteSpace=wrap;rounded=0;" vertex="1" parent="WIyWlLk6GJQsqaUBKTNV-1">
          <mxGeometry x="220" y="600" width="60" height="30" as="geometry" />
        </mxCell>
        <mxCell id="_a08THzZfKDhMIew0P52-20" value="is number of characters 1?" style="rhombus;whiteSpace=wrap;html=1;" vertex="1" parent="WIyWlLk6GJQsqaUBKTNV-1">
          <mxGeometry x="260" y="700" width="160" height="80" as="geometry" />
        </mxCell>
        <mxCell id="_a08THzZfKDhMIew0P52-22" value="no" style="text;html=1;align=center;verticalAlign=middle;resizable=0;points=[];autosize=1;strokeColor=none;fillColor=none;" vertex="1" parent="WIyWlLk6GJQsqaUBKTNV-1">
          <mxGeometry x="340" y="670" width="40" height="30" as="geometry" />
        </mxCell>
      </root>
    </mxGraphModel>
  </diagram>
</mxfile>
